<svg id="exB9FfA3Sph1" xmlns="http://www.w3.org/2000/svg" xmlns:xlink="http://www.w3.org/1999/xlink" viewBox="0 0 512 512" shape-rendering="geometricPrecision" text-rendering="geometricPrecision">
<style><![CDATA[
#exB9FfA3Sph4_to {animation: exB9FfA3Sph4_to__to 10000ms linear infinite normal forwards}@keyframes exB9FfA3Sph4_to__to { 0% {transform: translate(126.695328px,-82.654491px)} 50% {transform: translate(126.695328px,139.345509px)} 100% {transform: translate(126.695328px,-78.654491px)}}
]]></style>
<g><path d="M335.793,260.01c39.304-8.204,61.984-45.15,64.227-71.993-39.276-31.905-90.818,2.452-103.086,22.09c0,0-9.751.015-21.946,1.1c0-.158-.021-.302-.021-.46.035-5.695,1.322-12.548,6.636-20.889c5.35-8.305,15.057-18.207,32.574-28.425c18.71-10.929,36.787-23.621,50.881-38.29c7.046-7.363,13.109-15.252,17.574-23.924c4.444-8.643,7.263-18.206,7.263-28.273c0-6.479-1.187-13.094-3.61-19.48-3.638-9.614-7.766-15.748-16.452-24.125-8.722-8.391-30.575-19.659-51.327-26.21-13.9-4.386-16.474,4.911-6.644,12.009c15,10.829,27.612,19.638,38.657,33.746c2.977,3.804,7.018,11.843,8.219,15.007c1.201,3.178,1.69,6.09,1.704,9.053-.007,4.552-1.252,9.412-4.013,14.827-2.286,4.494-7.751,11.512-12.044,16.337-1.482,1.661.453,9.988-1.23,11.664-.906-3.546-26.785-35.846-50.313-41.116-11.656-2.61-13.195,4.911-3.07,11.045c23.14,14.022,23.32,23.93,23.751,30.69.108,1.654-.381,3.804-2.308,7.198-1.927,3.365-7.212,9.765-13.439,14.95-1.022.863-7.457,4.408-8.19,5.458-19.113,11.548-24.7,19.422-32.746,31.926-8.427,13.022-11.368,26.095-11.325,36.824c0,1.892.115,3.674.266,5.415-3.552,1.028-6.86,2.214-9.65,3.631c0,0-80.6,56.303-82.549,60.208-1.956,3.911-13.676,37.104-13.676,37.104s-78.12,54.685-83.973,60.545c-5.86,5.86,54.678,66.406,68.347,62.501c13.67-3.912,106.386-25.397,106.386-25.397L262.563,512h193.904L335.793,260.01Z" fill="#6d6e6c"/></g><g id="exB9FfA3Sph4_to" transform="translate(126.695328,-82.654491)"><g transform="scale(1.234093,1.13937) translate(77.304673,-132.345508)"><line x1="-58.568228" y1="0" x2="58.568229" y2="0" transform="translate(-77.304674 155.064141)" fill="none" stroke="#816c2e" stroke-width="3" stroke-linecap="round"/><line x1="0" y1="16.257373" x2="0" y2="-16.257373" transform="translate(-135.872902 138.806768)" fill="none" stroke="#816c2e" stroke-width="3" stroke-linecap="round"/><line x1="0" y1="16.257373" x2="0" y2="-16.257373" transform="translate(-18.872902 138.806768)" fill="none" stroke="#816c2e" stroke-width="3" stroke-linecap="round"/><line x1="-16.361587" y1="-8.128687" x2="16.361587" y2="8.128686" transform="translate(-119.511315 130.678082)" fill="none" stroke="#816c2e" stroke-width="3" stroke-linecap="round"/><line x1="-16.361587" y1="-8.128687" x2="16.361587" y2="8.128686" transform="matrix(-1 0 0 1-35.511315 130.678082)" fill="none" stroke="#816c2e" stroke-width="3" stroke-linecap="round"/><line x1="-12.922527" y1="14.58995" x2="12.922527" y2="-14.58995" transform="translate(-90.227201 124.216818)" fill="none" stroke="#816c2e" stroke-width="3" stroke-linecap="round"/><line x1="-12.077473" y1="14.58995" x2="12.922527" y2="-14.58995" transform="matrix(1 0 0-1-65.227201 124.216818)" fill="none" stroke="#816c2e" stroke-width="3" stroke-linecap="round"/></g></g></svg>
