<svg id="e9wu12U3BNr1" xmlns="http://www.w3.org/2000/svg" xmlns:xlink="http://www.w3.org/1999/xlink" viewBox="0 0 512 512" shape-rendering="geometricPrecision" text-rendering="geometricPrecision">
<style><![CDATA[
#e9wu12U3BNr3 {animation: e9wu12U3BNr3_c_o 5000ms linear infinite normal forwards}@keyframes e9wu12U3BNr3_c_o { 0% {opacity: 1} 50% {opacity: 0.5} 100% {opacity: 1}} #e9wu12U3BNr4 {animation: e9wu12U3BNr4_c_o 5000ms linear infinite normal forwards}@keyframes e9wu12U3BNr4_c_o { 0% {opacity: 1} 50% {opacity: 0.5} 100% {opacity: 1}}
]]></style>
<g><path id="e9wu12U3BNr3" d="M297.941,245.788c-46.436-40.72-103.046-61.562-150.03-72.954-40.218-9.745-90.838-17.308-45.165-90.155-19.47,55.351,3.48,64.587,29.684,71.314-19.142-20.942-17.87-52.526,11.532-76.394c46.115-37.434,75.203-3.648,81.775,9.19c1.834,3.601,4.297,6.312,5.582,9.437c8.018-21.712,15.829-39.569,12.797-48.712c11.385,13.025-4.644,44.522-11.19,66.87-.314,1.499-.703,3.012-1.205,4.511-7.63,31.478-.174,60.224,4.738,74.159c29.376,15.655,52.126,32.863,64.655,48.538c22.676-31.564,22.783-75.504-2.617-107.423-19.564-24.577-46.095-84.493-45.794-97.879.295-13.373-37.675-22.562-51.114-.917c0,0,5.689-28.612-27.736-34.857-24.255-4.525-83.582,20.547-72.712,80.885-11.284-1.519-26.357-.342-36.698,12.784-18.52,23.499,3.902,51.65,7.616,61.83-16.364,15.213-6.78,38.244-6.78,38.244c51.925-6.291,76.542,29.208,93.809,50.894c30.641,38.498,86.695,44.864,125.2,14.216c5.14-4.096,9.665-8.675,13.653-13.581Z" fill="#5c0505"/><path id="e9wu12U3BNr4" d="M181.831,158.418c72.064-60.103,4.591-98.614-33.826-64.507-29.831,26.491-6.325,63.999,17.743,69.48c19.564,6.292,38.043,13.634,54.829,21.619-5.334-16.946-3.574-40.841.194-58.136-1.399.936-23.693,34.188-38.94,31.544Zm-11.304-29.329c-6.894,5.488-13.915,11.405-17.274,7.189-5.81-5.234-.362-18.466,6.579-24.403c18.399-15.748,39.067-9.745,36.792,2.082-1.747,10.876-10.963,21.746-13.265,20.246-1.126-.744-1.434-14.183-12.832-5.114Z" fill="#5c0505"/><path d="M447.129,337.148c-7.884,6.867-15.273,10.24-15.273,10.24s-11.352-1.379-21.164,11.72c-9.798,13.098-6.158,39.422-8.206,52.56c27.71,1.372,69.688-49.602,44.643-74.52Z" fill="#136019"/><path d="M300.592,351.35c-2.476,5.181,5.368,12.758,5.368,12.758l-24.884-2.129c0,0,12.998,57.178,76.768,29.489-.442-25.701-24.015-50.13-57.252-40.118Z" fill="#136019"/><path d="M402.794,449.23c-10.213-29.168-17.71-64.561-30.493-99.82c1.539-11.994,12.61-21.759,12.61-21.759s-16.88.22-25.742-9.417c-11.445-23.633-26.652-46.309-48.257-65.852-3.815,4.156-7.811,8.239-12.148,12.161c5.964,5.355,11.505,10.93,16.498,16.78-.374,10.474-7.041,20.092-7.041,20.092s12.262-3.206,22.449.756c3.908,6.091,7.509,12.336,10.776,18.728c16.638,32.488,25.714,68.382,35.178,101.707.281,1.011.588,1.994.87,2.998-2.49,11.532-13.587,20.34-13.587,20.34s13.614.549,22.435,7.965c1.888,5.488,3.855,10.89,6.024,16.083c6.144,14.678,13.574,28.071,23.667,39.194c3.172,3.507,8.594,3.775,12.101.59c3.494-3.173,3.761-8.594.589-12.095-11.03-12.142-19.089-28.807-25.929-48.451Z" fill="#136019"/></g></svg>
