<svg xmlns="http://www.w3.org/2000/svg" viewBox="0 0 483 527.48"><defs><style>.cls-1{fill:#457945;}.cls-2{fill:#433907;}.cls-3{fill:#cbb015;}.cls-4{fill:#433c08;}.cls-5{fill:#867410;}.cls-6{fill:#a69111;}.cls-7{fill:#b49d13;}.cls-8{fill:#786a0e;}.cls-9{fill:#79680c;}.cls-10{fill:#cfb516;}.cls-11{fill:#fefefe;}.cls-12{fill:#e1e0e1;}.cls-13{fill:#fcfcfc;}.cls-14{fill:#fcd61a;}.cls-15{fill:#5a5110;}.cls-16{fill:#7a690d;}.cls-17{fill:#ad9d12;}.cls-18{fill:#5a4e09;}.cls-19{fill:#7f720e;}.cls-20{fill:#a49311;}.cls-21{fill:#554908;}.cls-22{fill:#7e6c0d;}.cls-23{fill:#8c800f;}.cls-24{fill:#9b8810;}.cls-25{fill:#fdd61a;}.cls-26{fill:#e1c718;}.cls-27{fill:#bda814;}.cls-28{fill:#967f0f;}.cls-29{fill:#b29c12;}.cls-30{fill:#020202;}.cls-31{fill:#5a4d09;}.cls-32{fill:#978a10;}.cls-33{fill:#fafafa;}.cls-34{fill:#cdb51a;}.cls-35{fill:#363112;}.cls-36{fill:#423b0e;}.cls-37{fill:#86730d;}.cls-38{fill:#9f8b10;}.cls-39{fill:none;stroke:#000;stroke-width:3px;}</style></defs><title>House Stokeworth</title><g id="Layer_2" data-name="Layer 2"><path class="cls-1" d="M927,122.76V328.6a313.88,313.88,0,0,1-2.28,38c-.11.93-.24,1.86-.36,2.79,0,.2,0,.4-.08.59-.09.74-.19,1.47-.31,2.2-.46,3.37-1,6.69-1.6,10-.07.44-.15.87-.23,1.31-.16.8-.29,1.6-.45,2.4s-.34,1.79-.51,2.69l-.45,2.22-.24,1.15c-.15.71-.3,1.44-.46,2.15-.54,2.37-1.07,4.71-1.61,7l-.58,2.32-.52,2q-1.53,5.88-3.27,11.61c-.29,1-.59,1.94-.9,2.92l-.6,1.88c-.2.63-.4,1.24-.61,1.86-.37,1.09-.73,2.17-1.1,3.25s-.68,2-1,3c-.47,1.28-.93,2.56-1.39,3.81-.36,1-.73,2-1.11,3l-.19.5c-.43,1.14-.87,2.25-1.32,3.36s-.87,2.17-1.31,3.2c0,.15-.12.28-.18.42-.4,1-.8,2-1.25,3s-.76,1.75-1.13,2.62l-.66,1.49c-.48,1.07-1,2.11-1.44,3.15s-.9,2-1.36,2.93l-1,2.12c-.29.63-.6,1.25-.91,1.87-.63,1.33-1.31,2.64-2,4q-2.52,5-5.19,9.77l-2,3.57-.12.21c-1.4,2.44-2.82,4.86-4.28,7.24a.41.41,0,0,1,0,.09c-.71,1.2-1.46,2.4-2.18,3.54-.11.16-.2.32-.3.47s-.31.5-.47.74c-.4.64-.81,1.28-1.22,1.92l-.65,1c-.65,1-1.31,2-2,3l-.13.18c-.65,1-1.31,2-2,3l-.45.67q-2.25,3.29-4.54,6.46l-.31.43c-.8,1.07-1.54,2.14-2.31,3.19s-1.66,2.23-2.5,3.32c-1.52,2-3.06,4-4.61,6l-.81,1q-1.09,1.39-2.22,2.76L854,526.61l-.57.69c-.4.47-.79.93-1.2,1.39a4.16,4.16,0,0,1-.27.32c-.31.37-.62.73-.94,1.09-1.23,1.44-2.46,2.87-3.73,4.29-.65.75-1.32,1.5-2,2.24s-1.52,1.69-2.29,2.51l-.78.85-1.44,1.55q-3,3.2-5.93,6.24-2.76,2.82-5.53,5.59l-.83.82c-.64.64-1.29,1.27-1.93,1.89-.92.89-1.85,1.78-2.79,2.66l-2.28,2.12c-.68.65-1.36,1.28-2,1.91q-14.52,13.32-30.16,25.31c-1,.77-2,1.52-3,2.28q-9.86,7.43-20.1,14.31-1.56,1.05-3.12,2.07c-1,.65-2,1.29-3,1.92a0,0,0,0,1,0,0l-.18.12h0l-2.24,1.45c-.86.55-1.72,1.1-2.57,1.6l-1.74,1.09c-3.67,2.31-7.25,4.48-10.73,6.54l-2.41,1.4-2.36,1.37-2.33,1.34-2.23,1.29c-8.34,4.68-15.9,8.59-22.38,11.76l-1.6.8c-10.64,5.15-18.12,8.22-21,9.35l-.42.17-.61.24-.14,0h-.08l-.23-.09-.21,0-1.07-.42-.54-.23c-.87-.34-2-.8-3.37-1.38l-.46-.18c-1.76-.8-3.89-1.67-6.33-2.77l-1.39-.61a442.25,442.25,0,0,1-39.75-20.6c-.8-.44-1.6-.92-2.35-1.38q-7.23-4.26-14.29-8.78-5.26-3.36-10.42-6.85c-.75-.51-1.49-1-2.23-1.53-.57-.38-1.13-.76-1.69-1.16q-8.21-5.66-16.15-11.66l-2.63-2-.61-.47c-.77-.6-1.55-1.2-2.33-1.82l-2.37-1.86-.44-.35c-6.19-4.92-12.43-10.15-18.64-15.69L558.08,566q-2.31-2.05-4.59-4.2l-1.67-1.57L550,558.54l-2-1.94c-1.12-1.07-2.23-2.17-3.33-3.27-.85-.79-1.69-1.66-2.52-2.5l-.24-.26c-.84-.83-1.67-1.67-2.5-2.51l-.34-.36-.38-.39L537.4,546l-1-1.06-1-1-.13-.15-2.1-2.25q-1.62-1.72-3.21-3.5l-.13-.14h0c-1.11-1.23-2.21-2.46-3.31-3.71l-1.31-1.5-.74-.84c-.57-.65-1.12-1.29-1.66-1.94q-1-1.2-2-2.4-4.28-5.1-8.39-10.48c-.76-1-1.5-1.93-2.24-2.92-1.89-2.47-3.73-5-5.57-7.55-.55-.8-1.12-1.59-1.68-2.39-.13-.16-.24-.34-.36-.5-.59-.86-1.19-1.7-1.77-2.56l-1.54-2.28a1,1,0,0,1-.12-.17c-.39-.57-.77-1.14-1.15-1.72-.74-1.09-1.47-2.2-2.19-3.31a1,1,0,0,0-.15-.24l-2.22-3.48-.22-.36-.88-1.43-1.22-2-.32-.53c-.17-.27-.34-.56-.51-.85-.46-.76-.94-1.56-1.38-2.33l-.64-1.1c-.5-.84-1-1.67-1.49-2.57q-4.61-8-8.77-16.46c-.35-.69-.69-1.38-1-2.09-.22-.44-.44-.88-.65-1.35-.43-.87-.8-1.74-1.25-2.63a25.91,25.91,0,0,1-1.15-2.47l-.23-.48c-.27-.58-.53-1.16-.81-1.75l-.26-.57c-.27-.59-.52-1.19-.8-1.78q-1.44-3.25-2.79-6.57c-.42-1-.8-2-1.23-3.08-.1-.25-.21-.52-.31-.79-.4-1-.8-2-1.16-3s-.69-1.82-1-2.74l-.24-.65c-.17-.44-.33-.91-.49-1.35q-1-2.7-1.9-5.44c-.21-.6-.4-1.2-.6-1.8-.26-.8-.51-1.54-.75-2.32-.14-.41-.27-.8-.4-1.22-.25-.8-.49-1.59-.75-2.39s-.51-1.71-.76-2.58c-.06-.18-.11-.35-.16-.53-.19-.64-.39-1.28-.57-1.95-.37-1.29-.74-2.58-1.09-3.89-.19-.68-.37-1.35-.55-2-.13-.5-.27-1-.4-1.51-.32-1.22-.62-2.45-.92-3.7-.18-.7-.34-1.4-.52-2.11-.07-.28-.13-.56-.19-.85-.37-1.55-.72-3.11-1.07-4.69-.26-1.16-.5-2.33-.74-3.5-.13-.71-.29-1.43-.42-2.14s-.32-1.59-.48-2.45a1.86,1.86,0,0,0-.09-.47c-.16-.8-.3-1.64-.45-2.48s-.32-1.84-.48-2.77-.29-1.8-.45-2.71q-.57-3.7-1.07-7.47c-.17-1.23-.33-2.47-.48-3.71A312.7,312.7,0,0,1,447,328.58V122.76Z" transform="translate(-445.5 -121.26)"/></g><g id="Layer_4" data-name="Layer 4"><path d="M554.13,288.56c1-.56,4.3.33,1.95-2.55-7.75-9.5-7.35-18.58,1.61-28.22,7.69-8.26,15.53-16.38,23.34-24.53,3.66-3.82,7.47-7.47,2-12.82-1-1-1.25-2.76-1.77-4.2-1.67-4.67.93-8.66,5.36-6.89,7.85,3.14,14.07-.74,21.18-1.82,14.49-2.21,29.85-1.08,41.13,9.39,6,5.57,10.41,9.18,19.15,9,6.57-.15,13.63,3.3,18.25,9.5,3,4,2.5,7.28-.8,10.63-6.27,6.35-14.8,7.67-22.81,9.89-3,.84-4.42,1.69-4,4.77,1.45,10.55,2.18,21.32,10.13,29.71,8.85,9.33,17.48,17,32.53,14.56,15.73-2.57,31.93-3,48-2.66,28.08.53,54.85,6.15,78.78,21.73a104.69,104.69,0,0,1,23.56,21.68,133.4,133.4,0,0,1,23,41.3c4.6,13.27,8.9,26.72,10.32,40.72,1.21,12-2.48,23-10.11,32.44-4,4.94-10.25,5.56-15.68,7.31A36,36,0,0,1,845.11,469c-2.54-.23-5.37-.45-7-2.16-8.57-9.09-20-8.5-30.89-9.41-12.12-1-23.9,2-35.72,4.07-5.13.92-9.92,1.07-13.73-3.28-2.67-3-4.22-.94-5.73,1.26-5.27,7.68-13,11.6-21.69,13.74-6.61,1.62-11.78-2.82-10.58-9.43.83-4.56-.38-5.72-4.7-5.22a81.89,81.89,0,0,1-9.19.1c-9.82,0-7.76-.21-8.06,8a1.13,1.13,0,0,1-1.63-.18c-1.44-2.66-2.24-5.66-4.38-8a3.93,3.93,0,0,1-.56-4.79c.75-1.44.4-3.91,2.47-4.07s1.92,2.07,2.23,3.46c.63,2.85,2.81,2.54,4.9,2.82,6.51.87,12.85-2,19.37-.81,2.79.84,3.07,3.1,3,5.5,0,1.53-.28,3.07.36,4.53,1.55,3.53,3,6.2,8,4.18,6.5-2.59,12.59-5.21,17-11,5.55-7.22,5.73-7.09,12.78-1.26,3.65,1.88,7.52,1.45,11.19.59,10.42-2.44,20.87-4.33,31.64-4.13,6.32.11,12.55.2,18.74,1.88,2.89.79,6.24,2.07,9-1.2,1.26-1.5,2.82-.61,3.6,1.06s.8,3.78,2.39,5.11c2.5,2.77,5.71,3.55,9.33,3.6,7.09.11,13.66-2.21,19.92-4.92,4.61-2,7.51-6.37,9.37-11.2A47.58,47.58,0,0,0,879,420.81c-5-24.86-13.32-48.31-28.71-68.86-16.28-21.74-38.34-34.14-64.4-40.1-23-5.26-46.2-5.54-69.59-2.86-8.13.93-16.38,1.36-24.6,1.6-4.58.14-8.44-1.53-12.19-4.24-9.94-7.21-18.78-15.13-22.51-27.44a127,127,0,0,1-3-14,25.74,25.74,0,0,0-.93-4.49c-2.69-7.18-2.28-8,5.15-9.28,6.44-1.11,12.8-2.59,18.71-5.38,6.39-3,6.52-6.89.69-10.95a20.38,20.38,0,0,0-15.91-3.15c-4.56.84-7.81-.6-10.31-4.37-5.44-8.2-13.42-11.57-22.84-13.83-15.94-3.82-27.37-.44-36.45,14.3-6.75,11-17,19.65-26.31,28.73-4,3.9-7.47,8.25-9.36,13.6-.69,2-1.51,4.34.13,6s3.47-.33,5.16-.94,3.3-1.51,4.76.12c1.7,1.9.45,3.51-.72,5.09-.54.72-1.57,1.2-1.17,2.78,8.46.3,16.85,2.5,25.44,2.5,4.8,0,9.53-.82,13.74-3.5,1.43-.91,3.16-2,4.61-.23s.83,3.62-.37,5.31a8.85,8.85,0,0,1-4.61,3.29c-4.59,1.46-5.45,4.53-4.76,9a48.41,48.41,0,0,1-3.29,27c-4.71,9.8-5.65,20.51-7.52,31-1.41,7.89-1.82,15.91-3.24,23.8-.57,3.2,0,6.43.65,9.66.49,2.36,1.51,4.81.48,7.31a2.31,2.31,0,0,1-2.4,1.09c-1.95-1-2.06-2.87-2.32-4.68a14,14,0,0,0-.62-5.3c-1.2-10.08,1.52-19.86,2.28-29.78.74-2.77-.72-3.19-3-3.06-4.53.24-9.08.47-13.53-.84-1.78-.52-3.86-.46-4.47-2.81a2.24,2.24,0,0,1,.69-1.64c2.91-1.7,5.93-.82,8.94-.41,8.93,1.2,12.09-.75,13.87-9.36,1.89-9.18,5.28-18,6.9-27.2a46.34,46.34,0,0,0-.31-17.65c-.47-2.26-1.35-4.15-4-4.1-9,.16-17.8-2.23-26.78-2C558.54,290.38,554.65,295.49,554.13,288.56Z" transform="translate(-445.5 -121.26)"/><path d="M538,440.22c-4.48,3.77-7.32,9.27-12.75,12-.85.43-1.61,1.38-2.45,1.41a82.13,82.13,0,0,0-16.19,2.12c-1.85.46-2.33-2.88-1.86-4.67,4.22-16.09,4.85-33,11.51-48.55a21.33,21.33,0,0,1,7-8.89c8.94-6.55,9.28-16.44,10-26,.35-4.35-4.35-3.94-6.89-5.54,4.42-4.18,8.08-3.74,10.57,1.27,1,2,2.49,3.89,1.94,6.39-2.13,6.5-2.19,13.59-5.53,19.76a13.77,13.77,0,0,1-3.64,5c-8.79,6.49-11.53,16.09-13.72,26-2.09,9.17-3.79,18.41-5.28,27.68,2.05.83,3-.71,4.16-1.43,2.79-5.85,3.9-11.78,1-17.95-.42-1.41-.27-2.68,1.34-3.08,2.23-.56,3.39.89,4.3,2.63,1.11,3.3.76,6.68.55,10.05a11.65,11.65,0,0,1-.35,1.67,31,31,0,0,0-1.49,7.09c-.33,3.3,1.51,2.09,3,1.11a13.11,13.11,0,0,1,2-1.33C536,440.2,538,427.64,535,417.29c-.32-1.08-.87-2.19-2.26-2.26-5.9-.28-2.72-3.14-1.58-5.45a4.57,4.57,0,0,1,1.28-1c3.8-1.07,4.67,1.95,6,4.31a8.47,8.47,0,0,1,.55,1.51c1.29,1.34-1.46,4.9,2.6,4.68,1.61-2,2.52-4.37,3.72-6.58a32.38,32.38,0,0,0,2.83-10.92c.11-2.08.58-4.16,2.68-5.32,4,1.41,3.45,4.71,3.24,7.86-1,4.34-1.64,8.8-3.22,13a11.31,11.31,0,0,1-1.73,3,43.43,43.43,0,0,0-6.59,9.17c-.77,1.54-1.76,3.19,1,4,1.43.41,3.22.68,2.9,2.75-.27,1.77-2,2.13-3.4,2.55a15.19,15.19,0,0,0-4.25,1.49Z" transform="translate(-445.5 -121.26)"/><path d="M696.67,466.65h1.18c-1,2-2.47,3.53-4.85,3.44-7.44-.26-14.87.46-22.33-.69-8.53-1.31-17.21-.61-25.8-.16-22.91,1.22-46,3.26-68.49-2-11.46-2.69-22.66-8.81-27.74-21.14-1.32-3.2-3.5-2.3-5.6-2.39-2.48-.11-5.31.51-5-3.48l0,0c1.82-1,3.76-.09,5.63-.37,2.17-.32,5-1.13,4.82-3.24-.72-7.31,4.61-5.86,8.57-6.57,1.67.49,2.35,1.43,1.42,3.1a6.1,6.1,0,0,1-1.09,1.21c-7.08,6.31-7.37,11.23-.93,16.53a16.44,16.44,0,0,1,3.17,3.25c10.29,8.75,22.57,11.77,35.65,12,14,.27,28,.6,41.93-.13,9.17-.48,18.36-1.5,27.48-.8C675.34,466,686,465.84,696.67,466.65Z" transform="translate(-445.5 -121.26)"/><path class="cls-2" d="M554.13,288.56c1.15,4.38,3.74.95,5.68,1a2.84,2.84,0,0,1,.89,1.3c1.37,9.12,1.36,9.14-6,12.91-3-1-4.92.91-7,2.4a22.91,22.91,0,0,0-4.69,3.7,30.64,30.64,0,0,1-5.92,3.72,11.85,11.85,0,0,1-4,1,2.43,2.43,0,0,1-2.49-1.85,2.21,2.21,0,0,1,1.18-2,98.54,98.54,0,0,0,12-7.36c.39-.5,1.16-.46,1.5-1-.55.48-1.25.76-1.76,1.3-4,2.46-8.19,4.73-12.26,7.15-1.42.93-2.86,1.78-4.66,1.38a2,2,0,0,1-1.54-1.76c1.07-3.3,4.5-3.63,6.78-5.42,3.53-2.44,7.51-4.2,10.79-7a21.12,21.12,0,0,1,2.6-2.89,8.53,8.53,0,0,1,1.26-.9c.78-.69,2.56-.62,2.35-1.84-.13-.77-2-.48-2.77-1.44C548.33,288.79,551.12,288.31,554.13,288.56Z" transform="translate(-445.5 -121.26)"/><path class="cls-3" d="M508.09,306.78l18.28-9.25c1.46-.64,3-1.07,4,.62s-.12,2.71-1,4c-2.65,3.89-7.34,6-9.13,10.59a11.87,11.87,0,0,1-6.39,4.07c-3.41,0-3.8-3.25-5.52-5.08C507.25,310.16,506.8,308.5,508.09,306.78Z" transform="translate(-445.5 -121.26)"/><path class="cls-4" d="M473.71,333.34c-4-6.77,1.92-8.63,5.75-11.51,1.37,2.18,2.49,4.56,5.73,4.55a2.23,2.23,0,0,1,2.42,2.48c-.2,1.42.72,1.88,1.89,2.13,1.48.29,2.71,1.23,4.19,1.51s3.81.14,4,2.23-2.12,2.23-3.47,3.08c-3.15,1.28-6.25,2.82-9.81,2.35a7.63,7.63,0,0,1-5-3.56C478.06,334.41,476,333.72,473.71,333.34Z" transform="translate(-445.5 -121.26)"/><path class="cls-5" d="M538.22,370.06c-2.34-9.37-4.19-10.61-11.82-7.93l-13.57-.1a1.12,1.12,0,0,1,.19-1.67c3.51-1.92,7.44-.88,11.14-1.49,5-.82,10.09-1.27,15.05-2.46a5.39,5.39,0,0,1,3.19,1.49c-2.77,6.77,2.32,9.94,6.26,13.65-1.47,3.71-4,5.61-8.13,4.8C538.63,374.68,538.48,372.35,538.22,370.06Z" transform="translate(-445.5 -121.26)"/><path class="cls-6" d="M519.56,312.47c-.17-2,.45-4.29,2.23-4.76,3.8-1,3.51-5.48,7.22-7.12,2.74-1.21-.49-2.87-2.63-3a10.43,10.43,0,0,1,6-2.14c2.73,2,5.36.58,8-.28,2-.66,3.94-1.7,5.79.26l-2.48,3.3a6.71,6.71,0,0,1-4.65,1.94c-3.51.07-5.67,1.82-6.67,5.12-1.57,2.65-5.22,2.16-6.92,4.6C524,312.56,522.14,313.49,519.56,312.47Z" transform="translate(-445.5 -121.26)"/><path class="cls-7" d="M508.09,306.78a7.34,7.34,0,0,0,1.2,4.57c-.75,2.64-3.85,4.4-2.85,7.68a2.11,2.11,0,0,1-1.16,1c-5.41-4.24-10.23-2.24-14.94,1.36a5.21,5.21,0,0,1-3.69,1.2c-3-1.3-2.52-2.74-.18-4.26C492.94,313.1,501.07,311,508.09,306.78Z" transform="translate(-445.5 -121.26)"/><path class="cls-8" d="M512.63,361a3.19,3.19,0,0,0,.2,1.06c-3.25,2.88-5.7-.83-8.21-1.5-8.18-2.19-15.45-6.46-20.66-13.52,6.5.73,12,4,17.71,6.84,2.61,2,6.26,1.68,8.82,3.82A7.36,7.36,0,0,1,512.63,361Z" transform="translate(-445.5 -121.26)"/><path class="cls-8" d="M501.22,355.1,484,347l0,.05c-2.11-2.85-4.58-5.39-6.86-8.09l-3.42-5.63c2.51-1.4,4.59-2.25,6.06,1.57.66,1.71,2.8,2.84,4.27,4.23a9.25,9.25,0,0,1,2.68,4.17c2.73,4.16,7,5.3,11.55,6.26S503.27,351.63,501.22,355.1Z" transform="translate(-445.5 -121.26)"/><path class="cls-9" d="M486.46,318.31c-.9,1.48-2.13,3.05.92,3.48a5.87,5.87,0,0,1,3.91,3.61,5.25,5.25,0,0,1-.87,3.11c-1.12,1.35-2.25,2.65-4.2,1.27,1-2.4-.56-2.47-2.13-2.27-4.64.58-5.32-2-4.63-5.67C481.93,320.93,483.57,318.39,486.46,318.31Z" transform="translate(-445.5 -121.26)"/><path class="cls-10" d="M546.13,295.37c-4.25-.7-7.54,2.71-11.81,2.65-2.78,0-3-.43-2-2.63,3-.71,5.6-3,9-2.43,2.38-.74,4.56-1.1,4.81,2.41Z" transform="translate(-445.5 -121.26)"/><path class="cls-6" d="M546.13,295.37c-.9-2.21-2.76-2.49-4.81-2.41,1.06-1.83,3.41-.72,4.68-2.06,2.15.07,4.38-.65,7.09.61A11.17,11.17,0,0,1,546.13,295.37Z" transform="translate(-445.5 -121.26)"/><path class="cls-8" d="M477.13,339c4,1.27,5.33,4.75,6.86,8.09C481.2,344.8,478,342.89,477.13,339Z" transform="translate(-445.5 -121.26)"/><path class="cls-11" d="M557.67,453.59a2.66,2.66,0,0,0-2.07-2c-6.41-7-5.73-12.64,2.18-18.08l-.06.06c11.93-10.11,24.61-18.65,40.82-20.16a139.85,139.85,0,0,0,17.55-2.88c5.11-1.14,6.51-3.49,4.3-7.72-8.12-15.58-7.37-31.28-1.27-47.19a1.33,1.33,0,0,0-.31-1.83c-6.1,15-7.87,29.9-1.54,45.14,3.47,8.34,2.74,9.69-6.3,11.31A76.18,76.18,0,0,1,599,411.85c-3.91.08-7.2-.85-9.25-4.49a9.06,9.06,0,0,1-1-1.5c-1.17-2.79-3.2-5.28-3.06-8.54-3.41-10.93-1.39-22,.22-32.74,2-13.26,3.44-26.72,8.55-39.33,3.81-8.78,3-18,2.5-27.18-.25-4.37-.42-8,5.2-8.77,1.39-.19,2.74-1.34,3.91-2.28,1.34-1.08,3-2.62,1.84-4.33-1.69-2.45-2.89.16-4,1.06-2.37,1.91-5.13,2.43-8,2.81-12.11,1.6-23.72-1.91-37.18-2.44,3.38-2.63,5.36-4,7.14-5.62a2,2,0,0,0,0-3.05c-.87-.86-1.75-.34-2.57.19-.32.21-.57.51-.89.72-2.38,1.56-5.28,4.33-7.65,2.3-2.61-2.24-1.21-6,0-9.14a37.73,37.73,0,0,1,9.37-13.61c12.23-11.9,24-24.21,33.85-38.23,3.71-5.28,8.88-7.45,15.35-7.32a111.43,111.43,0,0,1,19.36,2.4c8.18,1.62,15.08,5.61,19.49,13,2.33,3.9,4.76,5.45,9.81,4.09,7.53-2,14.31,1.11,20,6.19,3.52,3.14,3.22,6.23-.73,8.93-7.17,4.91-15.57,6.23-23.78,8-5.83,1.25-5.8.94-2.62,5.64.67,1,.66,2.54.68,3.84.36,20.42,11.1,34.51,27.73,44.73,4.93,3,10.83,1.74,16.35,1.45,17.4-.93,34.72-3.25,52.21-2.56,26.83,1.05,52.45,6.18,75.15,21.55,20.06,13.58,33,32.67,42.11,54.7a176.88,176.88,0,0,1,12,43A45.34,45.34,0,0,1,877.57,450c-5.8,13.35-29.15,20.14-40.3,12a24.86,24.86,0,0,1-2.18-16.52c2.48-12.45,7.94-23.94,11.49-36a63.87,63.87,0,0,0,2.32-24.32c-1-.28-1,.47-.93.86,2.15,12.08-2.15,23.09-6.09,34a252.9,252.9,0,0,0-9.73,34.13c-.63,3-1.5,3.61-4.42,2.89a93.45,93.45,0,0,0-34.06-2.37c-8.67,1.07-17.19,3.06-25.85,4.2a9.41,9.41,0,0,1-7.48-1.84c-5.35-2.7-3.25-9.11-6.75-13.08,3.7,9.21-3.51,13.88-8.22,19a23,23,0,0,1-13.6,6.82c-4.16.59-5.75-.74-4.88-4.8s3.07-7.81,5.31-11.43c-2.58,2-3.74,5.08-5.65,7.59-.72,1-1.64,1.82-2.89,1.26s-1-1.9-.65-3c3.87-12.12,8.47-23.25,22.74-27.1,10-2.71,19.9-2.82,30.1-2.09,11.78.84,23.53-.45,36.25-2.19-2.77-3.28-5.67-3.13-8.28-3.44-17.94-2.11-33.6-8.78-45.75-22.59-7.47-8.49-11-17.88-6.75-29.08,1.9-5,5.79-8.47,9.87-12-12.14,5.38-16.73,23.48-7.65,37.26,8.23,12.49,20.2,19.51,33.91,24.17,2.53.86,5.21,1.3,7.66,2.4,1.17.52,2.9.92,2.63,2.57s-2,1.7-3.26,1.72c-8.42.16-16.87.84-25.23-.38-11.28-1.64-21.79,1-31.68,5.86-6.45,3.2-9.53,9.71-12.52,16-1.43,3.32-3.82,4.69-7.55,5a160.2,160.2,0,0,1-17.15.94c-2.61-.06-4.08-.95-5-3.68-2.46-7.69-8.12-11.25-16.13-10.63-1.53.12-3,.52-4.56.56-4.78.13-6.33-1.91-3.81-5.88,4.15-6.54,5.63-13.8,6.73-21.18,1.4-9.43,3.48-18.45,10.69-25.42a7.68,7.68,0,0,0,2.14-4.61c0-.37-.16-.24-.56.19-9.59,10.55-12.18,23.66-14.72,37.17-3,16.25-10.35,21.48-26.93,21.26-16.26-.22-32.54,1.1-48.77-.9a63.91,63.91,0,0,1-8.41-1.83,11.43,11.43,0,0,0,7.06,2.68c17.36,1.42,34.71,2.17,52.15.66,10.46-.91,21-.56,31.49-2,4.27-.58,7.8,1.73,9.91,5.6.69,1.28,1.43,2.93.45,4.35s-2.68,1.16-4.22.92c-2.06-.33-4-1.33-6.36-.64,4.89.74,9.05,2.68,12.05,6.67,1.33,1.77,2.28,3.62,1.5,5.83-.88,2.48-3.14,1.71-4.94,1.74a138.94,138.94,0,0,1-18.87-1c-14.11-1.7-28.22.5-42.34.76-17.2.32-34.44,1.26-51.39-2.55C570,462.7,563.67,458.37,557.67,453.59Z" transform="translate(-445.5 -121.26)"/><path class="cls-1" d="M559.86,290.68a6,6,0,0,0-.06-1.08c5-3,10,.2,15,.28,4.47.07,9.06.94,13.63.87,3.33-.05,4.3,1.34,5,4.64,2.76,13.06-.8,25.19-4.47,37.39-1,3.27-1.67,6.63-2.5,9.94-2.12,8.5-6.75,11.66-15.18,9.75a36.62,36.62,0,0,0-9.06-.83,6,6,0,0,1-5.37,1.3c-2.94-.49-4-2-2.56-4.86a5,5,0,0,1,.58-1c8.41-10,10.56-21.79,10.21-34.34C564.82,305.06,563.67,297.55,559.86,290.68Z" transform="translate(-445.5 -121.26)"/><path d="M557.67,453.59C578,468.89,601.75,466.49,625,466.23c19.09-.22,38.18-3.19,57.24.47a25.19,25.19,0,0,0,6.31.06c2.18-.14,5.06.73,6-2.08s-1.24-4.7-3.1-6.31c-3-2.61-6.77-3.41-10.67-3.63-1.5-.09-3.47,0-3.42-2.1.06-2.51,2.19-2.3,3.88-2,3.36.54,6.68,1.28,10.08,1.94-1.19-6.33-4.78-8.92-11.19-8.25A462.7,462.7,0,0,1,601.55,446a31.48,31.48,0,0,1-11.7-2.58c-1.77-.85-3.62-2.17-2.25-4.4,1.14-1.86,2.5-.28,3.88.35,7,3.17,14.58,3,22,3.16,13,.27,26,.05,39.05-.37,12-.39,17.64-5.09,20.6-16.89,1.67-6.67,2.84-13.48,3.92-20.27a22,22,0,0,1,6.27-12.6c2.57-2.57,5.13-5.18,5.3-9.22.06-1.37.78-2.79,2.45-2.62,2.22.22,2,2.14,1.74,3.57-.49,3.27-1.57,6.39-4.17,8.61-6.16,5.25-7.93,12.34-8.84,19.92-1.56,13-3.13,17.47-9.43,27.76,2.86,1.34,5.61.17,8.28-.11,9.34-1,14.09,1.75,17,10.68,1.19,3.62,2.89,4.78,6.61,4.3a72.5,72.5,0,0,1,13.18-.62c4.49.25,7.18-1.56,8.78-5.51,2.33,4,.2,5.89-3.36,7.1-6.27.39-12.54.72-18.81,1.17-5,.36-9.1-.15-7.7-7.32-1.9,3.88-3.12,7,.68,10.05,1.78,1.41,1.9,4.09,1.65,6.46-6.29,2.46-12.93,1.54-19.24,1a263,263,0,0,0-39.28,0c-14.46.88-29,.57-43.53,0-6.93-.25-14.22-.22-20.65-3.44C568.19,461.29,561.37,459.78,557.67,453.59Z" transform="translate(-445.5 -121.26)"/><path d="M720.85,456.29c2.09-1.91,3.9-3.95,3.36-7.1,3.79-9.81,10-16.79,20.7-19.59,8.81-2.3,17.41-3.59,26.6-2.57,8.12.9,16.42.19,25.17.19-4.84-3.23-10.35-3.27-15.1-5.4-14.54-6.5-27.21-14.95-33-30.77a27.72,27.72,0,0,1,11.58-32.58c1.34-.8,2.86-1.83,4-.15,1,1.41-.44,2.43-1.39,3.34-2.36,2.23-5.09,4.16-7.07,6.68-5.61,7.14-6.34,15.26-2.52,23.25,8.4,17.57,24,25.51,41.93,29.8,4.64,1.11,9.43,1.58,14.17,2.23,2.32.32,5.23.41,5.16,3.3-.06,2.3-2.77,2.88-4.92,3.08-12.77,1.18-25.57,2.74-38.37,1.11-10.6-1.35-20.61.63-30.34,4.35-7,2.66-10.11,9.05-13.3,15.19a28.55,28.55,0,0,0-3.41,11.21c2.24-3.41,3.83-7.19,6.71-10.1,1.2-1.21,2.6-3,4.32-1.66,2.11,1.66,0,3-1.14,4.07-3.3,3.2-4.56,7.45-6.07,11.57-1.28,3.47.36,4.16,3.36,3.42,9.91-2.46,17-8.44,21.57-17.46,1.43-2.84.67-5.57-1.75-7.8-1-.89-2.15-2.1-.93-3.41,1.48-1.59,2.79-.21,3.88.82,2.16,2.06,3.77,4.61,3.33,7.61s1,5.09,2.63,7.2a.84.84,0,0,1-.29,1.33c-3.21-4-6-4.7-9,.46-4.88,8.39-13.61,11.05-22.07,13.9-2.93,1-7.56-5.07-7-9.13C721.91,460.5,722.79,458.23,720.85,456.29Z" transform="translate(-445.5 -121.26)"/><path d="M759.74,457.48l.29-1.33c4.26,2.7,8.82,1.91,13.31,1,18.11-3.7,36.21-6.27,54.46-.86,1.57.46,3.59,1.26,3.65-1.71.31-15.69,7.52-29.54,12-44.11,2.55-8.35,4.21-16.64,2.77-25.38-.3-1.84-.62-4.43,1.88-4.69,2.86-.3,2.13,2.55,2.42,4.25,2.55,15.1-3.24,28.62-8.15,42.28-2.65,7.39-5.15,14.79-6.3,22.61A28.54,28.54,0,0,0,837.27,462c-3.24-1.38-2-5-3.94-8.1-.63,4.62-2.74,4.79-6.27,3.83-16.33-4.41-32.82-2.91-49.13.1-4.45.82-8.69,2.36-13.33,2C762.61,459.56,760.8,459.46,759.74,457.48Z" transform="translate(-445.5 -121.26)"/><path d="M559.86,290.68c7.31,5.78,5.79,14.42,6.55,22a51.44,51.44,0,0,1,.06,11.19,45.16,45.16,0,0,1-9.09,22.39c-1.06,1.38-3.66,2.59-2.33,4.6.6.9,3.16.52,4.84.68.76.07,1.52,0,2.29.07q0,.59,0,1.19c-2.52,2.57-6.23.57-8.94,2.35-2.4,4.68-.56,9.25.32,13.85-.58,1.83-2,2.12-3.64,2a6.4,6.4,0,0,1-4.48-5.29c-2.13-6.71.43-11.53,4.08-17.51,3.84-6.31,5.63-14.44,8.11-21.84A81.43,81.43,0,0,0,561.49,311c.8-6.12,0-6.75-5.66-4.52-1.53.6-3.44,1.9-4.29-.54-.58-1.67.48-2.9,2.52-2.67,1-.78,2-1.6,3.08-2.33,2.38-1.65,5.75-2.85,2.12-6.61C558.73,293.82,559.62,291.93,559.86,290.68Z" transform="translate(-445.5 -121.26)"/><path d="M581.78,390.79c1.43,1.27,1.32,2.43-.25,3.5-1.92,1.93-4.27.42-6.71.71,2.22,2.79,6,1.58,8.08,3.78l2.18.05.58.5c1.73,1.88,2.39,4.49,4.23,6.29l0,0c.46,1.55,2.18,2.75,1.32,4.67-5.05-2.67-11.79-1.92-15.35-7.63-.8-1.28-2.34-1.16-3.57-1.62-6.1-4-11.2-9.14-16.23-14.37,1.53-2.21,3.65-1.89,5.82-1.37C567.67,390.11,574.72,390.48,581.78,390.79Z" transform="translate(-445.5 -121.26)"/><path d="M594.5,325.25a405,405,0,0,0-8.29,42.69c-1.45,10.3-2.11,20.54.31,30.78a.9.9,0,0,1-1.35.08l-.07,0c-4.51-14.89-.21-29.48,1.57-44.14a148.86,148.86,0,0,1,5.26-24.57C592.46,328.27,592.6,326.32,594.5,325.25Z" transform="translate(-445.5 -121.26)"/><path d="M581.78,390.79c-7.66,2.56-15.18.76-19.78-4.73a2.58,2.58,0,0,1-.46-2.26c1.43-3.59,3.3-7,3.72-11a2,2,0,0,1,2.08-1c2.58,1,2.71,2.92,1.9,5.16-.59,1.62-1.41,3.14-2.09,4.72-1.35,3.17-.5,5,2.93,5.93,7.25,2,8.46.86,9.07-6.59s.1-15.31,3.57-22.42a1.25,1.25,0,0,1,1.54.11C583.58,369.44,581,380,581.78,390.79Z" transform="translate(-445.5 -121.26)"/><path class="cls-12" d="M594,216.13c-1.6,2.32-2.32,6.33-4.92,5.78-3.08-.66-4-4.66-5-7.67-.45-1.42,1-2.08,2.16-1.68C588.92,213.5,592.27,213.13,594,216.13Z" transform="translate(-445.5 -121.26)"/><path d="M551.6,353.9c3.33-2.2,7-.65,10.55-1.07a33.1,33.1,0,0,0,18.65,1.86c4-.69,4.91.48,3.46,4.06l-.56-.39c-10.74.67-21.2-1.74-31.78-2.87A1.16,1.16,0,0,1,551.6,353.9Z" transform="translate(-445.5 -121.26)"/><path class="cls-1" d="M582.91,398.77c-3.34.57-6.37-.48-9.24-2-.95-.49-2.09-1.34-1.72-2.63.41-1.44,1.86-1.07,2.89-1,2.24.25,4.47.7,6.7,1.07A7.39,7.39,0,0,1,582.91,398.77Z" transform="translate(-445.5 -121.26)"/><path class="cls-13" d="M525.13,448.14l-1,1c-2.45,1.84-4.08.73-4.07-1.81,0-2.31-.47-4.84.87-7l0,.07c1-3.55.23-7.17.48-10.75-.42-2.49-1-4.78-4.25-4.9s-2.94-2.1-2.21-4.28c1.85-9.77,3.79-19.43,12.92-25.61,1.8-1.22,2.92-3.46,4.36-5.22,1.35-1.94,3-1.48,4.68-.55,1.53.77,3.13,1.38,4.65,2.15,8.51,4.29,9.43,6.6,6.48,16-.68,2.15-1.27,4.32-1.86,6.49l-3.71,6.56c-2.14,2.39-2.53-.11-3.27-1.24-1-1.58,0-3.63-1.05-5.25l0,0c-1.81-1.73-.62-7.31-5.89-4.59h0c-.64,1.17-1.72,2.06-2.3,3.24-.83,1.67-.72,3.31,1.69,2.42,3.07-1.14,3.79.91,4.4,2.86C539.47,428.81,535,441.2,525.13,448.14Z" transform="translate(-445.5 -121.26)"/><path class="cls-14" d="M548.25,419.4l1.45-2.08c3.1-4.09,8.2-7.3,6.06-13.72-.6-1.81-1.11-3.66-1.7-5.48-.65-2-1.49-4-.88-6.15,2.76-3.91,5.58-2.73,8.38-.08a63.94,63.94,0,0,0,12.27,9.65c2.46,1.95,3.6,4.91,5.6,7.22,2.73,3.14,2.66,6.18-.39,9.09a101.66,101.66,0,0,1-20.37,11.94C548.72,430,546.64,427.92,548.25,419.4Z" transform="translate(-445.5 -121.26)"/><path class="cls-15" d="M573.59,402.54c-4.37-3.43-9.67-5.69-13.24-10.1-2.08-2.57-4.09-1.93-6.35-.63-2.06,3.35,1.29,5.82,1.49,8.83.16,2.55.41,2.53-2.54,3.63.13-2.89.12-5.73-2.2-7.95-2.64-3.62-7.53-2.45-10.73-5-1-.83-2.33-1.18-2.3-2.8,7.41-4.76,15.1-9,23.52-11.73,1.59,1.53,2.36,3.28,1.49,5.48-4.44,2.28-8.94,4.45-13.22,7,2.17-1,4.11-2.73,6.82-2,6.93,2.38,10.62,8.82,16.21,12.89C573.53,400.65,574.45,401.21,573.59,402.54Z" transform="translate(-445.5 -121.26)"/><path class="cls-16" d="M548.25,419.4c.1.36.22.72.31,1.08,2,8.47,2,8.47,11.22,8,.85,2.31-1.39,1.73-2.26,2.42-2,.44-4,.86-6.05,1.34s-2.59.22-.85,2.84c1.86,2.8-2.18,5-4.88,5.88a9.09,9.09,0,0,1-7.7-.81c.28-1.3-.41-3.45,2.17-2.86,2.06.47,3.62-.36,5.24-1.31-.12-.44-.15-1-.31-1.06-6.78-1.56-7-1.71-3.24-7.79C543.61,424.39,545.09,421.13,548.25,419.4Z" transform="translate(-445.5 -121.26)"/><path class="cls-13" d="M514.88,420.38c.58,1-.69,3.08,2.11,2.86,3.86-.3,5.07,2.19,4.8,5.68a.73.73,0,0,1-1.1,0c-1-1.12-1.11-3.54-3.5-2.62-1.45.56-1.31,1.55-.16,2.46,2.06,6.6,1.21,13-1.17,19.34-2.34,1.12-4.57,4.56-6.86,3.08-2.1-1.35.48-4.48.92-6.78C511.43,436.4,512.19,428.19,514.88,420.38Z" transform="translate(-445.5 -121.26)"/><path class="cls-17" d="M552.94,404.27c3.87-2.41,1.29-5.47.32-7.84-.85-2.07-1.6-3.37.74-4.62,1,3.63,2.14,7.25,3.08,10.9,1.83,7.11.62,9.43-7.38,14.61Z" transform="translate(-445.5 -121.26)"/><path d="M525.58,447.6c8.73-7.55,12.5-16.91,10.4-28.42-.3-1.64-.2-3.6-2.08-4.36-1.46-.59-3.9,2.3-4.61-.9-.56-2.53,1.38-4.11,3.38-5.35.34,1.92-1.57,2.92-2.38,5.61,3.34-2.44,5.18-1.92,6.45,1.29,4,10.17.15,24.88-8.54,31.37A8.06,8.06,0,0,1,525.58,447.6Z" transform="translate(-445.5 -121.26)"/><path class="cls-13" d="M537.71,388.46a14.89,14.89,0,0,0,9.12,4.59c2.22.26,3.43,1.2,3.91,3.28-1.73,5.71-.89,12.11-4.63,17.27,0-5,2.8-9.5,2.46-14.58-.15-2.24.6-4-3.25-4.38-3.36-.32-6.48-3.25-9.71-5-2.57-4.48,1.27-7,3.06-10.23,2.68-1,2.57,1.33,3.22,2.74C542,385.25,538.63,386,537.71,388.46Z" transform="translate(-445.5 -121.26)"/><path class="cls-13" d="M539.13,379.44c.79,4.07-4.8,5.93-3.51,10.17-1.14-.84-2.3-.44-3.46-.07,1.37-5.63,3.87-11,4.14-16.9a3,3,0,0,1,1.93-2.59c2.49,1.34,2.22,3.72,2.24,6a1.49,1.49,0,0,1,.07,1.28C540.22,378.13,539.15,378.44,539.13,379.44Z" transform="translate(-445.5 -121.26)"/><path d="M515.85,448.14c.87-6.42,3.07-12.75,1.17-19.34C520.09,433.32,519.52,442.65,515.85,448.14Z" transform="translate(-445.5 -121.26)"/><path d="M520.44,440.25a61.77,61.77,0,0,1-.38,6.92c-.61,3.75,1.34,3.84,4,3.16-1.1,2.26-3.11,3.43-5.25,2.34s-1.48-3.6-.69-5.26C519.27,445.1,517.83,442,520.44,440.25Z" transform="translate(-445.5 -121.26)"/><path d="M532.2,409.12c3.67-2.73,4.48-2.1,5.89,4.59C535.88,412.5,536,408.29,532.2,409.12Z" transform="translate(-445.5 -121.26)"/><path d="M538.08,413.67c2.24,1.63.52,6.52,4.92,6.72-2.84,1.75-4.29,1.41-4.83-1.25A28.53,28.53,0,0,1,538.08,413.67Z" transform="translate(-445.5 -121.26)"/><path d="M520.21,427.4a3.3,3.3,0,0,1,1.26,0c-.42,4.32,1.11,8.79-1.06,13Q520.31,433.87,520.21,427.4Z" transform="translate(-445.5 -121.26)"/><path d="M557.51,430.95l2.26-2.42,18.34-11.38c3.61-3.48,8.7-4.17,12.77-6.76l-1-4.82c2.87,5.13,7.28,5.75,12.54,4.58,4.29-1,8.68-1.46,13-2.21,2.94-.51,3.78-1.63,2.19-4.71-8.5-16.52-7.11-33.24-.27-49.87.62-1.51,1.05-4.52,3.64-3.37s.74,3.4.06,5c-5.6,13.18-6.68,26.62-2.33,40.33a36.28,36.28,0,0,0,3.69,7.73c2.63,4.32,1.09,6.76-3.2,8.32a51.13,51.13,0,0,1-15.77,2.85c-16.83.52-29.85,9.59-43.23,18-.79.5-1.66.88-2.49,1.32C557.54,432.7,558.72,431.72,557.51,430.95Z" transform="translate(-445.5 -121.26)"/><path class="cls-18" d="M554,303.29c-.86.7-2.29,1.32-1.69,2.61s1.58.34,2.35-.2c.94-.65,1.86-1.33,2.83-1.95,3.77-2.4,5.61-1.58,5.7,2.9a50.48,50.48,0,0,1-5.48,23.25,16.49,16.49,0,0,0-1.48,4.83c-.58,3.68-3.55,7-4,9.89-.79,5-2.54,8-6.61,10.31-1.39.8-1,1.72-.22,3.2,1.21,2.16,2.85,4.71.88,7.42-2.53-1.63-2.31-4.7-3.67-7a2.85,2.85,0,0,1-2.57-1.49c-.1-1.56,1-2.45,1.94-3.41,5.44-5.25,7.82-12.36,10.83-18.94S555,321.09,554,314.13c-.54-3.6-2.58-4-5.17-2-4.39,3.43-9.81,5-14.36,8.1a3.83,3.83,0,0,1-3.3-.36c-1.75-5.25,4-4.69,5.65-7.28l5.65-3.51c2.3-.16,3.25-2.17,4.74-3.46C549.23,304.07,550.38,300,554,303.29Z" transform="translate(-445.5 -121.26)"/><path class="cls-19" d="M536.82,312.57c-1,3-5,3.62-5.72,6.93a1.36,1.36,0,0,1,.16,1.59c-6.27,5.75-14.23,8.5-21.71,12.08a85.44,85.44,0,0,1-12.23,4.58,4.23,4.23,0,0,1-2.52-.53l-.55-.68,4-2.55c-4.47.91-6.91-1.1-9.75-1.92-.12-2.92,2.46-2.4,4-3,8.88-3.23,17.5-7.16,26.51-10,5.36-.24,9-5.3,14.43-5.25Z" transform="translate(-445.5 -121.26)"/><path class="cls-20" d="M519.74,319.38c-3.2,4.69-9,3.32-13.33,5.63-5.61,3-11.88,4.77-17.86,7.06-1.3-.23-3.94.88-2.32-2.3a3.45,3.45,0,0,0,3.47-2.21c10.21-4.58,21-7.87,30.62-13.72a19.84,19.84,0,0,1,6.38-2.28l4.4-1.32c1.1-.36,1.36.07,1,1.07l-1.13,1.1C528.45,316.71,524.15,318.15,519.74,319.38Z" transform="translate(-445.5 -121.26)"/><path class="cls-21" d="M526.7,311.57c-10.44,7.26-22.63,11-33.82,16.68-1.23.63-2.15-.34-3.19-.68l1.21-2.3c4-4.55,9.25-5.67,14.94-5.76l0-.06c1.56-3.79,5.2-2.69,8.06-3.44l5.7-3.54,5.84-2.14Z" transform="translate(-445.5 -121.26)"/><path class="cls-18" d="M532.1,311.32l-1-1.07a22.09,22.09,0,0,1,12.71-6.91l0,0C541.09,307.74,537,310.1,532.1,311.32Z" transform="translate(-445.5 -121.26)"/><path class="cls-22" d="M532.32,305.73c-2.29-5.48,2.19-6.21,5.31-6.23a37.51,37.51,0,0,0,6-.83C540.46,302,536.23,303.6,532.32,305.73Z" transform="translate(-445.5 -121.26)"/><path class="cls-18" d="M519.74,319.38c3.55-2.64,8-3.77,11.23-7a2.72,2.72,0,0,0,2.52,1.41c-3.25,1.82-6.6,3.48-9.7,5.53A3.17,3.17,0,0,1,519.74,319.38Z" transform="translate(-445.5 -121.26)"/><path class="cls-22" d="M543.81,303.34a8.74,8.74,0,0,1,5.37-4.72c-.64,3.82-2.38,5-5.41,4.69Z" transform="translate(-445.5 -121.26)"/><path class="cls-23" d="M547.21,305.6c-.6,2.49-1,5.25-4.73,3.46C543.8,307.57,544.76,305.57,547.21,305.6Z" transform="translate(-445.5 -121.26)"/><path class="cls-20" d="M513.86,316l-8.06,3.44c-1.57-3.87-1.59-7.08,3.49-8.1C511.84,311.9,510.88,315.89,513.86,316Z" transform="translate(-445.5 -121.26)"/><path class="cls-24" d="M485.1,343.6,484,339.14c3.64.06,6.82-1.69,10.22-2.6l.1.39c3.7,4.34,3.41,5.44-2,6.37C490,343.71,487.58,344.67,485.1,343.6Z" transform="translate(-445.5 -121.26)"/><path class="cls-25" d="M496.7,336.79a232.86,232.86,0,0,0,34.45-16.08c2.72-1.5,5.72.22,8.49-.78a6.34,6.34,0,0,1,1.67-.08c4.79,3.61,9.76,7.09,10.33,13.85-.32,8.28-5.4,14.54-9.11,21.38a3.87,3.87,0,0,0-2.45,2c-8.79,3.88-18.22,3.15-27.45,3.86a2.41,2.41,0,0,1-2.3-2.34c-3.8-2.64-6.41-6.59-10.49-9-2.56-1.51-5.09-4.06-3.28-7.55C497.59,340.1,494.72,338.45,496.7,336.79Z" transform="translate(-445.5 -121.26)"/><path class="cls-26" d="M542.66,358.6c3.82.95,2.39,4.66,3.67,7l3.1,4.69c.18.86-.06,1.26-1,.9-5.63.06-7.06-5.18-9.57-8.43C536.88,360.12,542.48,361.12,542.66,358.6Z" transform="translate(-445.5 -121.26)"/><path class="cls-27" d="M548.44,371.13l1-.9c1.16-.5,2.69-.06,3.52-1.4a4,4,0,0,1,3-1.75c2,.29,2.54,1.42,1.9,3.25a33.21,33.21,0,0,1-11.49,8.28c-3.16,1.41-4.14,1-6-1.86a.58.58,0,0,1,.14-.72A11.91,11.91,0,0,0,548.44,371.13Z" transform="translate(-445.5 -121.26)"/><path class="cls-28" d="M505.84,319.5l-14.94,5.76a7.66,7.66,0,0,1-3.52-3.48c.78-.54,1.55-1.1,2.33-1.63C498.25,314.4,498.25,314.4,505.84,319.5Z" transform="translate(-445.5 -121.26)"/><path class="cls-29" d="M496.7,336.79c1.54,3.49-1.35,8.92,2.76,10.69s5.43,6,9,7.91a3,3,0,0,1,1.88,3.24c-2.8-1.8-6.54-1.14-9.12-3.53,2-5.16-2.67-4.16-4.71-4.42-5-.64-8.83-2.73-11.41-7.08,2-1.5,4.48-1.49,6.6-1.45,5.15.1,4-2.36,2.65-5.22Z" transform="translate(-445.5 -121.26)"/><path class="cls-30" d="M605.75,246a8.88,8.88,0,0,0-4.33-1.16c-1.62-.06-4.14-.13-3.16-2.6.68-1.71,3.61-4,4.86-2.79,4,3.75,9,2.58,13.39,3.91a5.57,5.57,0,0,1,4,2.86c-3.55,0-6.67.14-9.54,2.47-2.54,2.06-4.52.16-5.23-2.77,1-.9,2.1-.19,3.14-.44A2.69,2.69,0,0,0,605.75,246Z" transform="translate(-445.5 -121.26)"/><path d="M659.62,248.09c-1.63-.21-4.43-.43-3.6-1.71a17,17,0,0,1,8.8-6.3c1.11-.39,2.66.55,1.94,1.81C665.13,244.77,663.52,248,659.62,248.09Z" transform="translate(-445.5 -121.26)"/><path d="M585.17,398.8l1.35-.08a18,18,0,0,1,3.39,6.89C587,404.27,586,401.59,585.17,398.8Z" transform="translate(-445.5 -121.26)"/><path d="M555.74,368l-2.79.81c-3.3-4.72-3.26-9.75-1.34-14.94l.31,1.42C554,359.32,553.88,364,555.74,368Z" transform="translate(-445.5 -121.26)"/><path class="cls-31" d="M590.88,410.38c-.09,2-1.29,2.94-3.16,3.49-3.24,1-6.41,2.17-9.61,3.27,2.19-2.49,3.32-4.77.26-7.7-2-1.9-3.21-4.58-4.78-6.9l-1.05-2.42c.95,0,2.58-.34,2.75,0C578.36,406.84,587.3,404.56,590.88,410.38Z" transform="translate(-445.5 -121.26)"/><path class="cls-32" d="M556.32,387.23c-3.5,1.19-6.39,4.92-11.62,2.53,5.15-2.5,9.88-4.22,13.77-7.4,1.39-1.13,2.48-.26,3.62.41q.56.22.49.61t-.22.43l-.35,2.24C560.07,386.22,558,385.64,556.32,387.23Z" transform="translate(-445.5 -121.26)"/><path class="cls-33" d="M555.74,368c-4.76-3.19-4-8-3.83-12.71,4.12-1.61,8.23-.37,12.32.11,5.41.63,10.75,2.49,16.27.81,1.93-.59,2.81.4,3.2,2.13A91.27,91.27,0,0,0,580.51,385c.05,4.55-1.41,5.94-5.63,4.82a3.66,3.66,0,0,0-.57,0c-11.57-1.13-12.26-2.38-6.67-12.48,1.17-2.11,1.61-3.92-.88-5.34-2.52-.34-5,1-7.56,0-1-.51-1.85-1.13-1.86-2.4C557.37,368.47,557,367.8,555.74,368Z" transform="translate(-445.5 -121.26)"/><path class="cls-34" d="M560.45,371.41c2.1.31,4.46-2.27,6.32.58l-.89,1.49c-.92,2.24-2.46,3.53-5,3.24-7.19,4.94-14.65,9.36-23.14,11.73-1.72-3.77,2.25-3.78,3.63-5.51C547.07,378,554.07,375.25,560.45,371.41Z" transform="translate(-445.5 -121.26)"/><path class="cls-35" d="M560.86,376.72l5-3.24c1.3,4.28-1.94,7-3.51,10.33a7.7,7.7,0,0,1-.26-1Z" transform="translate(-445.5 -121.26)"/><path class="cls-36" d="M560.45,371.41c-4.84,6.37-12.53,8-19.1,11.54-1.2-.88-.53-2.94-2.22-3.51-1.31-1.65.47-1.93,1.19-2.69,1.79,2.4,3.8,1.84,5.87.43l11.15-7.61Z" transform="translate(-445.5 -121.26)"/><path class="cls-37" d="M542.54,355.07a16.84,16.84,0,0,1,3.54-7.58c3.5-4,2.82-9.53,4.5-14.24.89-.78.57-1.64.25-2.58-2.37-7-2.27-9,1-17.62-4.54,2.1-7.61,5.52-11.52,7.55h0c-2.32,1.19-4.2.35-5.89-1.31,4.48-4.49,11-5.68,15.8-9.7a2.85,2.85,0,0,1,4.67,1.53c2.07,8.86,2.61,17.72-1.68,26.19a46.81,46.81,0,0,0-3.41,8.78C548.83,349.5,545.07,352.11,542.54,355.07Z" transform="translate(-445.5 -121.26)"/><path class="cls-38" d="M534.41,319.3l5.89,1.31c-3,2.87-6.11-.71-9.15.1l-.05-1.2Z" transform="translate(-445.5 -121.26)"/><path class="cls-38" d="M540.3,320.6c2-4.64,7.37-5.66,10.19-9.45a1.64,1.64,0,0,1,2.52,0c.76.67,1.37,1.86.79,2.52-5.11,5.84-2.39,12.76-2.81,19.23,0,.13-.27.25-.42.37C549.26,327.32,544.89,323.88,540.3,320.6Z" transform="translate(-445.5 -121.26)"/><path d="M605.75,246c.79-3.44,3.22-2.58,5.39-1.9,1.13.35,1.07,1.36.4,2.3-2.21,3.09-3.91.06-5.82-.47Z" transform="translate(-445.5 -121.26)"/></g><g id="Layer_3" data-name="Layer 3"><path class="cls-39" d="M927,122.76V328.6a313.88,313.88,0,0,1-2.28,38c-.11.93-.24,1.86-.36,2.79,0,.2,0,.4-.08.59-.09.74-.19,1.47-.31,2.2-.46,3.37-1,6.69-1.6,10-.07.44-.15.87-.23,1.31-.16.8-.29,1.6-.45,2.4s-.34,1.79-.51,2.69l-.45,2.22-.24,1.15c-.15.71-.3,1.44-.46,2.15-.54,2.37-1.07,4.71-1.61,7l-.58,2.32-.52,2q-1.53,5.88-3.27,11.61c-.29,1-.59,1.94-.9,2.92l-.6,1.88c-.2.63-.4,1.24-.61,1.86-.37,1.09-.73,2.17-1.1,3.25s-.68,2-1,3c-.47,1.28-.93,2.56-1.39,3.81-.36,1-.73,2-1.11,3l-.19.5c-.43,1.14-.87,2.25-1.32,3.36s-.87,2.17-1.31,3.2c0,.15-.12.28-.18.42-.4,1-.8,2-1.25,3s-.76,1.75-1.13,2.62l-.66,1.49c-.48,1.07-1,2.11-1.44,3.15s-.9,2-1.36,2.93l-1,2.12c-.29.63-.6,1.25-.91,1.87-.63,1.33-1.31,2.64-2,4q-2.52,5-5.19,9.77l-2,3.57-.12.21c-1.4,2.44-2.82,4.86-4.28,7.24a.41.41,0,0,1,0,.09c-.71,1.2-1.46,2.4-2.18,3.54-.11.16-.2.32-.3.47s-.31.5-.47.74c-.4.64-.81,1.28-1.22,1.92l-.65,1c-.65,1-1.31,2-2,3l-.13.18c-.65,1-1.31,2-2,3l-.45.67q-2.25,3.29-4.54,6.46l-.31.43c-.8,1.07-1.54,2.14-2.31,3.19s-1.66,2.23-2.5,3.32c-1.52,2-3.06,4-4.61,6l-.81,1q-1.09,1.39-2.22,2.76L854,526.61l-.57.69c-.4.47-.79.93-1.2,1.39a4.16,4.16,0,0,1-.27.32c-.31.37-.62.73-.94,1.09-1.23,1.44-2.46,2.87-3.73,4.29-.65.75-1.32,1.5-2,2.24s-1.52,1.69-2.29,2.51l-.78.85-1.44,1.55q-3,3.2-5.93,6.24-2.76,2.82-5.53,5.59l-.83.82c-.64.64-1.29,1.27-1.93,1.89-.92.89-1.85,1.78-2.79,2.66l-2.28,2.12c-.68.65-1.36,1.28-2,1.91q-14.52,13.32-30.16,25.31c-1,.77-2,1.52-3,2.28q-9.86,7.43-20.1,14.31-1.56,1.05-3.12,2.07c-1,.65-2,1.29-3,1.92a0,0,0,0,1,0,0l-.18.12h0l-2.24,1.45c-.86.55-1.72,1.1-2.57,1.6l-1.74,1.09c-3.67,2.31-7.25,4.48-10.73,6.54l-2.41,1.4-2.36,1.37-2.33,1.34-2.23,1.29c-8.34,4.68-15.9,8.59-22.38,11.76l-1.6.8c-10.64,5.15-18.12,8.22-21,9.35l-.42.17-.61.24-.14,0h-.08l-.23-.09-.21,0-1.07-.42-.54-.23c-.87-.34-2-.8-3.37-1.38l-.46-.18c-1.76-.8-3.89-1.67-6.33-2.77l-1.39-.61a442.25,442.25,0,0,1-39.75-20.6c-.8-.44-1.6-.92-2.35-1.38q-7.23-4.26-14.29-8.78-5.26-3.36-10.42-6.85c-.75-.51-1.49-1-2.23-1.53-.57-.38-1.13-.76-1.69-1.16q-8.21-5.66-16.15-11.66l-2.63-2-.61-.47c-.77-.6-1.55-1.2-2.33-1.82l-2.37-1.86-.44-.35c-6.19-4.92-12.43-10.15-18.64-15.69L558.08,566q-2.31-2.05-4.59-4.2l-1.67-1.57L550,558.54l-2-1.94c-1.12-1.07-2.23-2.17-3.33-3.27-.85-.79-1.69-1.66-2.52-2.5l-.24-.26c-.84-.83-1.67-1.67-2.5-2.51l-.34-.36-.38-.39L537.4,546l-1-1.06-1-1-.13-.15-2.1-2.25q-1.62-1.72-3.21-3.5l-.13-.14h0c-1.11-1.23-2.21-2.46-3.31-3.71l-1.31-1.5-.74-.84c-.57-.65-1.12-1.29-1.66-1.94q-1-1.2-2-2.4-4.28-5.1-8.39-10.48c-.76-1-1.5-1.93-2.24-2.92-1.89-2.47-3.73-5-5.57-7.55-.55-.8-1.12-1.59-1.68-2.39-.13-.16-.24-.34-.36-.5-.59-.86-1.19-1.7-1.77-2.56l-1.54-2.28a1,1,0,0,1-.12-.17c-.39-.57-.77-1.14-1.15-1.72-.74-1.09-1.47-2.2-2.19-3.31a1,1,0,0,0-.15-.24l-2.22-3.48-.22-.36-.88-1.43-1.22-2-.32-.53c-.17-.27-.34-.56-.51-.85-.46-.76-.94-1.56-1.38-2.33l-.64-1.1c-.5-.84-1-1.67-1.49-2.57q-4.61-8-8.77-16.46c-.35-.69-.69-1.38-1-2.09-.22-.44-.44-.88-.65-1.35-.43-.87-.8-1.74-1.25-2.63a25.91,25.91,0,0,1-1.15-2.47l-.23-.48c-.27-.58-.53-1.16-.81-1.75l-.26-.57c-.27-.59-.52-1.19-.8-1.78q-1.44-3.25-2.79-6.57c-.42-1-.8-2-1.23-3.08-.1-.25-.21-.52-.31-.79-.4-1-.8-2-1.16-3s-.69-1.82-1-2.74l-.24-.65c-.17-.44-.33-.91-.49-1.35q-1-2.7-1.9-5.44c-.21-.6-.4-1.2-.6-1.8-.26-.8-.51-1.54-.75-2.32-.14-.41-.27-.8-.4-1.22-.25-.8-.49-1.59-.75-2.39s-.51-1.71-.76-2.58c-.06-.18-.11-.35-.16-.53-.19-.64-.39-1.28-.57-1.95-.37-1.29-.74-2.58-1.09-3.89-.19-.68-.37-1.35-.55-2-.13-.5-.27-1-.4-1.51-.32-1.22-.62-2.45-.92-3.7-.18-.7-.34-1.4-.52-2.11-.07-.28-.13-.56-.19-.85-.37-1.55-.72-3.11-1.07-4.69-.26-1.16-.5-2.33-.74-3.5-.13-.71-.29-1.43-.42-2.14s-.32-1.59-.48-2.45a1.86,1.86,0,0,0-.09-.47c-.16-.8-.3-1.64-.45-2.48s-.32-1.84-.48-2.77-.29-1.8-.45-2.71q-.57-3.7-1.07-7.47c-.17-1.23-.33-2.47-.48-3.71A312.7,312.7,0,0,1,447,328.58V122.76Z" transform="translate(-445.5 -121.26)"/></g></svg>